<svg xmlns="http://www.w3.org/2000/svg" viewBox="0 0 600 600" width="600" height="600">
  <defs>
    <linearGradient id="bg_pakfans-air-cooler-pf-700-heavy-metal" x1="0" y1="0" x2="0" y2="1">
      <stop offset="0%" stop-color="#F8FAFC"/>
      <stop offset="100%" stop-color="#E2E8F0"/>
    </linearGradient>
    <filter id="acSh_pakfans-air-cooler-pf-700-heavy-metal" x="-5%" y="-5%" width="110%" height="115%">
      <feDropShadow dx="0" dy="16" stdDeviation="15" flood-color="#0F172A" flood-opacity="0.2"/>
    </filter>
  </defs>

  <rect width="600" height="600" fill="url(#bg_pakfans-air-cooler-pf-700-heavy-metal)"/>

  <g filter="url(#acSh_pakfans-air-cooler-pf-700-heavy-metal)">
    <!-- Caster Wheels -->
    <circle cx="210" cy="515" r="14" fill="#334155"/>
    <circle cx="390" cy="515" r="14" fill="#334155"/>

    <!-- Cooler Body -->
    <rect x="180" y="110" width="240" height="395" rx="18" fill="#F8FAFC" stroke="#94A3B8" stroke-width="2"/>

    <!-- Top Ice Chamber / Control Lid -->
    <rect x="180" y="110" width="240" height="65" rx="18" fill="#0F766E"/>
    <text x="300" y="145" font-family="'Outfit', sans-serif" font-size="16" font-weight="900" fill="#FFFFFF" text-anchor="middle" letter-spacing="2">
      PAKFANS
    </text>
    <circle cx="220" cy="140" r="6" fill="#38BDF8"/>
    <circle cx="380" cy="140" r="6" fill="#38BDF8"/>

    <!-- Oscillating Louvers / Grille -->
    <rect x="205" y="195" width="190" height="190" rx="12" fill="#1E293B"/>
    <g stroke="#38BDF8" stroke-width="3" opacity="0.8">
      <line x1="225" y1="220" x2="375" y2="220"/>
      <line x1="225" y1="245" x2="375" y2="245"/>
      <line x1="225" y1="270" x2="375" y2="270"/>
      <line x1="225" y1="295" x2="375" y2="295"/>
      <line x1="225" y1="320" x2="375" y2="320"/>
      <line x1="225" y1="345" x2="375" y2="345"/>
      <line x1="225" y1="370" x2="375" y2="370"/>
    </g>

    <!-- Water Tank Level Indicator -->
    <rect x="205" y="415" width="190" height="60" rx="8" fill="#E2E8F0"/>
    <rect x="285" y="425" width="30" height="40" rx="4" fill="#0284C7" opacity="0.6"/>
  </g>

  <g transform="translate(210, 540)">
    <rect x="0" y="0" width="180" height="34" rx="17" fill="#0284C7"/>
    <text x="90" y="22" font-family="'Outfit', sans-serif" font-size="12" font-weight="bold" fill="#FFFFFF" text-anchor="middle">
      TURBO AIR COOLER
    </text>
  </g>
</svg>